Coordinates
version=1
nRows=13
nColumns=40
inDegrees=yes

Units are S.I. units (second, meters, Newtons, ...)
Angles are in degrees.

endheader
time	pelvis_tilt	pelvis_list	pelvis_rotation	pelvis_tx	pelvis_ty	pelvis_tz	hip_flexion_r	hip_adduction_r	hip_rotation_r	knee_angle_r	knee_angle_r_beta	ankle_angle_r	subtalar_angle_r	mtp_angle_r	hip_flexion_l	hip_adduction_l	hip_rotation_l	knee_angle_l	knee_angle_l_beta	ankle_angle_l	subtalar_angle_l	mtp_angle_l	lumbar_extension	lumbar_bending	lumbar_rotation	arm_flex_r	arm_add_r	arm_rot_r	elbow_flex_r	pro_sup_r	wrist_flex_r	wrist_dev_r	arm_flex_l	arm_add_l	arm_rot_l	elbow_flex_l	pro_sup_l	wrist_flex_l	wrist_dev_l
      0.78000000	      1.40618587	     -4.09077804	     -2.53935730	     -0.61248663	      0.89072826	     -1.45028112	     -8.02831101	      5.36180681	    -14.31780506	    -21.60726169	     -0.37711786	     11.94887814	      5.52524756	     -5.32552904	     21.96518320	      4.54651054	     13.42568776	    -12.64689565	     -0.22072997	     -1.06236579	     -2.70398680	     -9.01165463	    -10.32138938	      4.28487001	      7.94080912	     19.48805541	    -12.71661270	     19.04825851	     24.50486453	     89.95437384	      0.00000000	      0.00000000	     -1.26614611	      7.38479851	     -9.47755016	     19.97682790	     89.95437384	      0.00000000	      0.00000000
      0.79000000	      1.18381728	     -4.07994758	     -2.73806184	     -0.60369227	      0.88970981	     -1.45080217	     -8.16855067	      5.17774408	    -14.13558938	    -22.02483737	     -0.38440593	     11.69691731	      5.35954083	     -5.24117935	     22.01796821	      4.51266062	     13.21248903	    -13.04300437	     -0.22764337	     -1.12450067	     -2.58267351	     -8.83772533	    -10.06599034	      4.23500810	      7.88773853	     19.15654906	    -12.49545709	     19.02941948	     24.68411877	     89.95437384	      0.00000000	      0.00000000	     -1.52062581	      7.30127650	     -9.46628485	     20.05626737	     89.95437384	      0.00000000	      0.00000000
      0.80000000	      1.26431386	     -4.02440779	     -3.15496148	     -0.59461549	      0.88940753	     -1.45131837	     -8.71781226	      4.89425264	    -13.62310226	    -22.30329967	     -0.38926601	     11.56073070	      5.49365373	     -5.30277148	     21.58156185	      4.48467986	     13.36094144	    -13.53033781	     -0.23614894	     -1.61826295	     -1.95186158	     -8.66690004	    -10.07375233	      4.13870916	      8.03088044	     19.17923837	    -12.03072009	     19.10488801	     23.75799645	     89.95437384	      0.00000000	      0.00000000	     -1.29409231	      6.99553552	     -9.67530142	     19.02079575	     89.95437384	      0.00000000	      0.00000000
      0.81000000	      1.18896398	     -3.90841390	     -3.48875676	     -0.58536290	      0.88879227	     -1.45180236	     -9.05670959	      4.55070207	    -13.32262669	    -22.66671384	     -0.39560879	     11.29025449	      5.38843112	     -5.27099995	     21.40757286	      4.39077440	     13.53074898	    -14.22366876	     -0.24824985	     -3.25351091	     -1.00586406	     -8.21437777	     -9.90959434	      3.95167832	      8.13675233	     18.92177778	    -11.70715401	     19.04657836	     23.31156549	     89.95437384	      0.00000000	      0.00000000	     -1.30160423	      6.82637040	     -9.77940754	     18.65431711	     89.95437384	      0.00000000	      0.00000000
      0.82000000	      1.11343003	     -3.60154412	     -3.78724959	     -0.57624411	      0.88849377	     -1.45252955	     -9.23508500	      4.02791170	    -12.71663305	    -23.24121551	     -0.40563573	     10.82991919	      5.24163088	     -5.22792004	     21.15557126	      4.03678989	     13.43926609	    -14.56442198	     -0.25419712	     -5.05159372	     -0.26257598	     -7.77433621	     -9.76274527	      3.56319980	      8.11491770	     18.69412208	    -11.28219373	     18.99313770	     22.71047667	     89.95437384	      0.00000000	      0.00000000	     -1.27338815	      6.69617757	     -9.97635020	     18.20985901	     89.95437384	      0.00000000	      0.00000000
      0.83000000	      0.99407030	     -3.20471484	     -4.04440167	     -0.56710368	      0.88833548	     -1.45333483	     -9.25663125	      3.39745352	    -12.29385347	    -23.98092722	     -0.41854614	     10.35976213	      4.89688019	     -5.15109090	     20.86471762	      3.56216704	     13.11860250	    -14.66433004	     -0.25594084	     -5.93836819	     -0.04642220	     -7.51420359	     -9.58836635	      3.09239727	      8.04137312	     18.40393777	    -10.85655591	     18.85556035	     22.12085928	     89.95437384	      0.00000000	      0.00000000	     -1.32342967	      6.64365761	    -10.20188334	     18.00372098	     89.95437384	      0.00000000	      0.00000000
      0.84000000	      0.79159246	     -3.09312550	     -4.04091370	     -0.55768980	      0.88817513	     -1.45411657	     -9.29147576	      3.18929279	    -12.01253777	    -24.56833304	     -0.42879830	      9.98779086	      4.69433257	     -5.04314034	     20.81864490	      3.43563497	     12.92843567	    -15.10052954	     -0.26355396	     -5.98762908	      0.03493900	     -7.33680346	     -9.32285206	      2.91603185	      7.86244506	     17.72436975	    -10.67318125	     18.80672668	     22.20784617	     89.95437384	      0.00000000	      0.00000000	     -1.51400531	      6.65487237	    -10.19324991	     18.22449335	     89.95437384	      0.00000000	      0.00000000
      0.85000000	      0.93147494	     -2.41131726	     -4.26217325	     -0.54830265	      0.88883254	     -1.45521017	     -9.32009240	      2.17369182	    -11.70007716	    -25.77063158	     -0.44978237	      8.96371321	      4.03919687	     -4.86056863	     20.22374258	      2.71577125	     13.67192878	    -15.38422979	     -0.26850546	     -5.80596105	      0.78601800	     -7.15652360	     -9.35990188	      2.15327583	      7.61577281	     17.73651029	     -9.99765779	     18.71290670	     20.79945728	     89.95437384	      0.00000000	      0.00000000	     -1.17706951	      6.53314375	    -10.81802590	     17.18166497	     89.95437384	      0.00000000	      0.00000000
      0.86000000	      1.18404065	     -1.25433112	     -4.63534588	     -0.53848849	      0.88989831	     -1.45648145	     -9.34100627	      0.42974751	    -11.83052844	    -27.15568041	     -0.47395603	      7.86261976	      3.46966039	     -4.93654040	     19.01298964	      0.98876195	     12.57193100	    -14.76955093	     -0.25777729	     -5.00300890	      4.45710640	     -6.66680868	     -9.45685055	      0.83838878	      7.88189610	     17.11214325	     -9.43764776	     16.99049101	     20.10506067	     89.95437384	      0.00000000	      0.00000000	     -1.09371301	      6.91957937	    -13.41974699	     17.28961813	     89.95437384	      0.00000000	      0.00000000
      0.87000000	      1.19352092	     -0.88390804	     -4.62470283	     -0.52908023	      0.89069494	     -1.45770992	     -9.15885230	     -0.18021548	    -11.62583021	    -28.42302462	     -0.49607536	      6.72062481	      2.99142643	     -4.71156240	     18.65220962	      0.42697725	     12.27156417	    -15.31701666	     -0.26733237	     -4.44351729	      4.04437860	     -6.65481324	     -9.37216832	      0.44545827	      7.59472456	     16.70607930	     -9.09040914	     17.11071192	     19.36446479	     89.95437384	      0.00000000	      0.00000000	     -0.84165162	      6.79704560	    -13.71599054	     16.71514480	     89.95437384	      0.00000000	      0.00000000
      0.88000000	      1.22550866	     -0.50716537	     -4.59232281	     -0.51960205	      0.89166670	     -1.45900297	     -8.83381215	     -0.83218736	    -11.53694696	    -29.94101830	     -0.52256935	      5.30117939	      2.42139763	     -4.42423939	     18.20440573	     -0.13684998	     12.12691904	    -15.77807582	     -0.27537937	     -3.80584783	      3.73900657	     -6.60902941	     -9.29433225	      0.05428263	      7.27030291	     16.24616271	     -8.78386971	     17.19695421	     18.71349714	     89.95437384	      0.00000000	      0.00000000	     -0.64966738	      6.78342470	    -14.10705053	     16.31630197	     89.95437384	      0.00000000	      0.00000000
      0.89000000	      1.12651703	      0.19187979	     -4.68022377	     -0.50986137	      0.89254669	     -1.46049271	     -8.10832796	     -2.00551055	    -11.78340230	    -31.81163128	     -0.55521771	      3.42585086	      1.38253962	     -3.50402187	     17.62161938	     -1.17545487	     11.68691769	    -15.68693264	     -0.27378862	     -2.96215604	      4.95653510	     -5.98053618	     -8.93951508	     -0.65949048	      7.22854839	     15.57948478	     -8.50377140	     17.15477036	     17.98313305	     89.95437384	      0.00000000	      0.00000000	     -0.55132107	      7.13552752	    -16.75969315	     16.35534060	     89.95437384	      0.00000000	      0.00000000
      0.90000000	      1.14617748	      0.41836957	     -4.67630951	     -0.50034134	      0.89367487	     -1.46188318	     -7.47770467	     -2.61594775	    -11.82470183	    -33.70304296	     -0.58822907	      1.43922726	      0.91451757	     -3.13309752	     16.97242245	     -1.56793840	     11.67966248	    -15.81553884	     -0.27603323	     -2.23693984	      4.60332113	     -5.94206720	     -8.81370340	     -0.83483209	      6.98071590	     15.13021124	     -8.24171184	     17.33306217	     17.15447273	     89.95437384	      0.00000000	      0.00000000	     -0.29619501	      7.02631551	    -16.98952262	     15.92274132	     89.95437384	      0.00000000	      0.00000000
